#tb 0: 1/25
#media_type 0: video
#codec_id 0: rawvideo
#dimensions 0: 256x636
#sar 0: 1/1
0,          0,          0,        1,   488448, 0x752e5560
0,          1,          1,        1,   488448, 0xa2befdd3
0,          2,          2,        1,   488448, 0xb8b07524
0,          3,          3,        1,   488448, 0xaa115796
0,          4,          4,        1,   488448, 0x8a5bd922
0,          5,          5,        1,   488448, 0x0b066a59
0,          6,          6,        1,   488448, 0x6322279c
0,          7,          7,        1,   488448, 0xd2c2f431
0,          8,          8,        1,   488448, 0x00c8cbcd
0,          9,          9,        1,   488448, 0x0da3457e
0,         10,         10,        1,   488448, 0x09b56f1c
0,         11,         11,        1,   488448, 0xdd7943f3
0,         12,         12,        1,   488448, 0x15801f6c
0,         13,         13,        1,   488448, 0x51384112
0,         14,         14,        1,   488448, 0x990916f6
0,         15,         15,        1,   488448, 0xc65ef4d1
0,         16,         16,        1,   488448, 0xac0959f9
0,         17,         17,        1,   488448, 0x34372970
0,         18,         18,        1,   488448, 0x03c6af95
0,         19,         19,        1,   488448, 0x100f77f7
0,         20,         20,        1,   488448, 0xa4c4075a
0,         21,         21,        1,   488448, 0xf50b9801
0,         22,         22,        1,   488448, 0x660c6922
0,         23,         23,        1,   488448, 0x95ea9314
0,         24,         24,        1,   488448, 0x17b0abed
0,         25,         25,        1,   488448, 0x39989fdd
0,         26,         26,        1,   488448, 0xfb686984
0,         27,         27,        1,   488448, 0x61975887
0,         28,         28,        1,   488448, 0xd35d2cdd
0,         29,         29,        1,   488448, 0x378c3df6
0,         30,         30,        1,   488448, 0x47628a1d
0,         31,         31,        1,   488448, 0x152ce2e0
0,         32,         32,        1,   488448, 0x5d938241
0,         33,         33,        1,   488448, 0xdc6091c1
0,         34,         34,        1,   488448, 0xa1c50061
0,         35,         35,        1,   488448, 0x8c15cc21
0,         36,         36,        1,   488448, 0xb2071222
0,         37,         37,        1,   488448, 0xf4986aad
0,         38,         38,        1,   488448, 0x19b0e4de
0,         39,         39,        1,   488448, 0x283f9d26
0,         40,         40,        1,   488448, 0xa27ac552
0,         41,         41,        1,   488448, 0x2ab0b41d
0,         42,         42,        1,   488448, 0x2cd16b58
0,         43,         43,        1,   488448, 0x7c8a02cf
0,         44,         44,        1,   488448, 0x411c869f
0,         45,         45,        1,   488448, 0x04c72729
0,         46,         46,        1,   488448, 0x7ebef233
0,         47,         47,        1,   488448, 0xb701ba33
0,         48,         48,        1,   488448, 0x4aac8217
0,         49,         49,        1,   488448, 0x54ac1eb3
